<svg width="435" height="394" viewBox="0 0 435 394" fill="none" xmlns="http://www.w3.org/2000/svg">
<g filter="url(#filter0_d_90_93)">
<ellipse cx="227" cy="143.764" rx="200" ry="143.264" fill="#377D86"/>
<path d="M43.3815 282.948L65.7016 202.856L128.716 267.898L43.3815 282.948Z" fill="#377D86"/>
<g filter="url(#filter1_d_90_93)">
<g style="mix-blend-mode:lighten" filter="url(#filter2_i_90_93)">
<path d="M262.546 145.421C262.546 154.682 258.694 163.564 251.838 170.113C244.981 176.662 235.681 180.341 225.984 180.341C216.287 180.341 206.987 176.662 200.13 170.113C193.274 163.564 189.421 154.682 189.421 145.421L225.984 145.421H262.546Z" fill="white"/>
</g>
<ellipse cx="225.983" cy="151.241" rx="12.1875" ry="11.6402" fill="black"/>
<path d="M189.421 141.063L262.546 141.063" stroke="black"/>
<g style="mix-blend-mode:lighten" filter="url(#filter3_i_90_93)">
<path d="M357 145.421C357 154.682 353.147 163.564 346.291 170.113C339.434 176.662 330.134 180.341 320.437 180.341C310.74 180.341 301.44 176.662 294.583 170.113C287.727 163.564 283.875 154.682 283.875 145.421L320.437 145.421H357Z" fill="white"/>
</g>
<ellipse cx="320.437" cy="151.241" rx="12.1875" ry="11.6402" fill="black"/>
<path d="M283.875 141.063L357 141.063" stroke="black"/>
<g style="mix-blend-mode:lighten" filter="url(#filter4_i_90_93)">
<path d="M170.125 145.421C170.125 154.682 166.272 163.564 159.416 170.113C152.559 176.662 143.259 180.341 133.562 180.341C123.865 180.341 114.565 176.662 107.708 170.113C100.852 163.564 96.9995 154.682 96.9995 145.421L133.562 145.421H170.125Z" fill="white"/>
</g>
<ellipse cx="133.562" cy="151.241" rx="12.1875" ry="11.6402" fill="black"/>
<path d="M96.9995 141.063L170.125 141.063" stroke="black"/>
</g>
<path d="M20.816 362.884C22.928 363.332 24.624 364.164 25.904 365.38C27.216 366.596 27.872 368.404 27.872 370.804C27.872 377.268 23.408 380.5 14.48 380.5H4.64V347.236H13.328C17.584 347.236 20.864 347.94 23.168 349.348C25.472 350.724 26.624 352.852 26.624 355.732C26.624 357.652 26.08 359.22 24.992 360.436C23.904 361.62 22.512 362.436 20.816 362.884ZM12.32 352.66V360.58H14.432C17.376 360.58 18.848 359.22 18.848 356.5C18.848 355.188 18.464 354.228 17.696 353.62C16.928 352.98 15.712 352.66 14.048 352.66H12.32ZM14.528 374.932C16.32 374.932 17.68 374.596 18.608 373.924C19.536 373.252 20 372.084 20 370.42C20 367.284 18.304 365.716 14.912 365.716H12.32V374.932H14.528ZM51.9965 367.252C51.9965 368.276 51.9485 369.172 51.8525 369.94H37.6445C37.8365 372.18 38.3325 373.732 39.1325 374.596C39.9325 375.46 41.0685 375.892 42.5405 375.892C43.5005 375.892 44.4125 375.716 45.2765 375.364C46.1405 375.012 47.0845 374.468 48.1085 373.732L51.1325 377.812C48.5085 380.148 45.4525 381.316 41.9645 381.316C38.1245 381.316 35.1965 380.132 33.1805 377.764C31.1965 375.364 30.2045 372.068 30.2045 367.876C30.2045 363.78 31.1645 360.484 33.0845 357.988C35.0045 355.46 37.7085 354.196 41.1965 354.196C44.5565 354.196 47.1965 355.332 49.1165 357.604C51.0365 359.844 51.9965 363.06 51.9965 367.252ZM44.7485 365.14C44.7485 363.124 44.4765 361.62 43.9325 360.628C43.4205 359.604 42.5405 359.092 41.2925 359.092C40.1725 359.092 39.3085 359.572 38.7005 360.532C38.0925 361.46 37.7245 363.108 37.5965 365.476H44.7485V365.14ZM81.4126 354.196C83.2366 354.196 84.6926 354.868 85.7806 356.212C86.9006 357.556 87.4606 359.364 87.4606 361.636V380.5H80.1646V362.596C80.1646 360.676 79.5886 359.716 78.4366 359.716C77.3166 359.716 76.2446 360.724 75.2206 362.74V380.5H67.9246V362.596C67.9246 360.676 67.3646 359.716 66.2446 359.716C65.6046 359.716 65.0286 359.972 64.5166 360.484C64.0046 360.996 63.4926 361.748 62.9806 362.74V380.5H55.6366V355.012H62.1166L62.5966 358.036C64.3566 355.476 66.5646 354.196 69.2206 354.196C70.5006 354.196 71.6046 354.548 72.5326 355.252C73.4606 355.924 74.1486 356.916 74.5966 358.228C75.5246 356.884 76.5326 355.876 77.6206 355.204C78.7406 354.532 80.0046 354.196 81.4126 354.196ZM122.582 355.012L115.478 380.5H106.742L99.4944 355.012H107.222L111.158 374.884L115.238 355.012H122.582ZM132.169 355.012V380.5H124.777V355.012H132.169ZM128.425 341.716C129.673 341.716 130.697 342.116 131.497 342.916C132.329 343.716 132.745 344.708 132.745 345.892C132.745 347.108 132.329 348.116 131.497 348.916C130.697 349.716 129.673 350.116 128.425 350.116C127.177 350.116 126.153 349.716 125.353 348.916C124.553 348.116 124.153 347.108 124.153 345.892C124.153 344.708 124.553 343.716 125.353 342.916C126.153 342.116 127.177 341.716 128.425 341.716ZM151.119 354.196C153.103 354.196 154.655 354.868 155.775 356.212C156.927 357.524 157.503 359.332 157.503 361.636V380.5H150.111V362.644C150.111 361.588 149.951 360.852 149.631 360.436C149.343 359.988 148.895 359.764 148.287 359.764C147.647 359.764 147.023 360.036 146.415 360.58C145.839 361.092 145.231 361.86 144.591 362.884V380.5H137.199V355.012H143.679L144.207 358.036C145.135 356.756 146.159 355.796 147.279 355.156C148.399 354.516 149.679 354.196 151.119 354.196ZM183.491 344.884V380.5H176.963L176.627 377.668C174.995 380.1 172.835 381.316 170.147 381.316C167.299 381.316 165.123 380.132 163.619 377.764C162.115 375.364 161.363 372.02 161.363 367.732C161.363 365.044 161.747 362.676 162.515 360.628C163.315 358.58 164.419 356.996 165.827 355.876C167.267 354.756 168.915 354.196 170.771 354.196C172.915 354.196 174.691 354.98 176.099 356.548V344.116L183.491 344.884ZM172.499 375.892C173.235 375.892 173.891 375.684 174.467 375.268C175.043 374.82 175.587 374.148 176.099 373.252V361.684C175.587 360.98 175.075 360.468 174.563 360.148C174.083 359.796 173.507 359.62 172.835 359.62C170.275 359.62 168.995 362.324 168.995 367.732C168.995 370.772 169.299 372.9 169.907 374.116C170.515 375.3 171.379 375.892 172.499 375.892ZM198.847 354.196C202.431 354.196 205.231 355.364 207.247 357.7C209.295 360.004 210.319 363.364 210.319 367.78C210.319 372.004 209.295 375.316 207.247 377.716C205.199 380.116 202.399 381.316 198.847 381.316C195.263 381.316 192.463 380.148 190.447 377.812C188.431 375.476 187.423 372.116 187.423 367.732C187.423 363.476 188.431 360.164 190.447 357.796C192.495 355.396 195.295 354.196 198.847 354.196ZM198.847 359.668C197.535 359.668 196.575 360.292 195.967 361.54C195.359 362.788 195.055 364.852 195.055 367.732C195.055 370.676 195.359 372.772 195.967 374.02C196.575 375.268 197.535 375.892 198.847 375.892C200.159 375.892 201.119 375.268 201.727 374.02C202.367 372.74 202.687 370.66 202.687 367.78C202.687 364.836 202.383 362.756 201.775 361.54C201.167 360.292 200.191 359.668 198.847 359.668ZM242.92 373.444C242.92 374.308 243.032 374.948 243.256 375.364C243.48 375.78 243.864 376.1 244.408 376.324L242.872 381.172C241.4 381.044 240.2 380.708 239.272 380.164C238.344 379.62 237.624 378.772 237.112 377.62C235.544 380.084 233.256 381.316 230.248 381.316C227.944 381.316 226.104 380.596 224.728 379.156C223.384 377.684 222.712 375.748 222.712 373.348C222.712 370.564 223.64 368.436 225.496 366.964C227.384 365.492 230.104 364.756 233.656 364.756H235.672V363.556C235.672 362.052 235.4 361.012 234.856 360.436C234.312 359.828 233.352 359.524 231.976 359.524C230.408 359.524 228.408 359.956 225.976 360.82L224.296 356.068C225.704 355.46 227.208 354.996 228.808 354.676C230.408 354.356 231.896 354.196 233.272 354.196C236.568 354.196 239 354.932 240.568 356.404C242.136 357.876 242.92 360.116 242.92 363.124V373.444ZM232.456 376.036C233.128 376.036 233.736 375.828 234.28 375.412C234.856 374.996 235.32 374.404 235.672 373.636V368.884H234.328C232.824 368.884 231.72 369.204 231.016 369.844C230.312 370.452 229.96 371.412 229.96 372.724C229.96 373.812 230.168 374.644 230.584 375.22C231.032 375.764 231.656 376.036 232.456 376.036ZM258.332 354.196C261.916 354.196 264.716 355.364 266.732 357.7C268.78 360.004 269.804 363.364 269.804 367.78C269.804 372.004 268.78 375.316 266.732 377.716C264.684 380.116 261.884 381.316 258.332 381.316C254.748 381.316 251.948 380.148 249.932 377.812C247.916 375.476 246.908 372.116 246.908 367.732C246.908 363.476 247.916 360.164 249.932 357.796C251.98 355.396 254.78 354.196 258.332 354.196ZM258.332 359.668C257.02 359.668 256.06 360.292 255.452 361.54C254.844 362.788 254.54 364.852 254.54 367.732C254.54 370.676 254.844 372.772 255.452 374.02C256.06 375.268 257.02 375.892 258.332 375.892C259.644 375.892 260.604 375.268 261.212 374.02C261.852 372.74 262.172 370.66 262.172 367.78C262.172 364.836 261.868 362.756 261.26 361.54C260.652 360.292 259.676 359.668 258.332 359.668ZM296.357 346.42C298.277 346.42 299.989 346.724 301.493 347.332C302.997 347.94 304.421 348.852 305.765 350.068L302.117 354.34C301.253 353.604 300.389 353.06 299.525 352.708C298.693 352.324 297.797 352.132 296.837 352.132C292.677 352.132 290.597 356.02 290.597 363.796C290.597 371.508 292.693 375.364 296.885 375.364C297.973 375.364 298.933 375.156 299.765 374.74C300.629 374.292 301.589 373.652 302.645 372.82L306.101 377.044C304.917 378.292 303.493 379.316 301.829 380.116C300.197 380.916 298.389 381.316 296.405 381.316C293.621 381.316 291.189 380.66 289.109 379.348C287.061 378.036 285.461 376.068 284.309 373.444C283.157 370.82 282.581 367.604 282.581 363.796C282.581 360.084 283.173 356.932 284.357 354.34C285.541 351.716 287.157 349.748 289.205 348.436C291.285 347.092 293.669 346.42 296.357 346.42ZM322.26 354.196C324.244 354.196 325.796 354.868 326.916 356.212C328.068 357.524 328.644 359.332 328.644 361.636V380.5H321.252V362.644C321.252 361.588 321.092 360.852 320.772 360.436C320.452 359.988 320.004 359.764 319.428 359.764C318.788 359.764 318.164 360.036 317.556 360.58C316.98 361.092 316.372 361.86 315.732 362.884V380.5H308.34V344.884L315.732 344.116V357.796C316.628 356.58 317.604 355.684 318.66 355.108C319.716 354.5 320.916 354.196 322.26 354.196ZM352.28 373.444C352.28 374.308 352.392 374.948 352.616 375.364C352.84 375.78 353.224 376.1 353.768 376.324L352.232 381.172C350.76 381.044 349.56 380.708 348.632 380.164C347.704 379.62 346.984 378.772 346.472 377.62C344.904 380.084 342.616 381.316 339.608 381.316C337.304 381.316 335.464 380.596 334.088 379.156C332.744 377.684 332.072 375.748 332.072 373.348C332.072 370.564 333 368.436 334.856 366.964C336.744 365.492 339.464 364.756 343.016 364.756H345.032V363.556C345.032 362.052 344.76 361.012 344.216 360.436C343.672 359.828 342.712 359.524 341.336 359.524C339.768 359.524 337.768 359.956 335.336 360.82L333.656 356.068C335.064 355.46 336.568 354.996 338.168 354.676C339.768 354.356 341.256 354.196 342.632 354.196C345.928 354.196 348.36 354.932 349.928 356.404C351.496 357.876 352.28 360.116 352.28 363.124V373.444ZM341.816 376.036C342.488 376.036 343.096 375.828 343.64 375.412C344.216 374.996 344.68 374.404 345.032 373.636V368.884H343.688C342.184 368.884 341.08 369.204 340.376 369.844C339.672 370.452 339.32 371.412 339.32 372.724C339.32 373.812 339.528 374.644 339.944 375.22C340.392 375.764 341.016 376.036 341.816 376.036ZM372.251 379.3C371.387 379.94 370.379 380.436 369.227 380.788C368.107 381.14 366.971 381.316 365.819 381.316C363.227 381.316 361.275 380.58 359.963 379.108C358.651 377.636 357.995 375.572 357.995 372.916V360.148H354.923V355.012H357.995V349.492L365.387 348.628V355.012H370.619L369.851 360.148H365.387V372.82C365.387 374.58 366.059 375.46 367.403 375.46C368.139 375.46 368.939 375.22 369.803 374.74L372.251 379.3ZM392.545 373.444C392.545 374.308 392.657 374.948 392.881 375.364C393.105 375.78 393.489 376.1 394.033 376.324L392.497 381.172C391.025 381.044 389.825 380.708 388.897 380.164C387.969 379.62 387.249 378.772 386.737 377.62C385.169 380.084 382.881 381.316 379.873 381.316C377.569 381.316 375.729 380.596 374.353 379.156C373.009 377.684 372.337 375.748 372.337 373.348C372.337 370.564 373.265 368.436 375.121 366.964C377.009 365.492 379.729 364.756 383.281 364.756H385.297V363.556C385.297 362.052 385.025 361.012 384.481 360.436C383.937 359.828 382.977 359.524 381.601 359.524C380.033 359.524 378.033 359.956 375.601 360.82L373.921 356.068C375.329 355.46 376.833 354.996 378.433 354.676C380.033 354.356 381.521 354.196 382.897 354.196C386.193 354.196 388.625 354.932 390.193 356.404C391.761 357.876 392.545 360.116 392.545 363.124V373.444ZM382.081 376.036C382.753 376.036 383.361 375.828 383.905 375.412C384.481 374.996 384.945 374.404 385.297 373.636V368.884H383.953C382.449 368.884 381.345 369.204 380.641 369.844C379.937 370.452 379.585 371.412 379.585 372.724C379.585 373.812 379.793 374.644 380.209 375.22C380.657 375.764 381.281 376.036 382.081 376.036ZM385.681 349.828C385.041 349.828 384.497 349.732 384.049 349.54C383.633 349.348 383.089 349.044 382.417 348.628C382.001 348.34 381.665 348.132 381.409 348.004C381.185 347.876 380.929 347.812 380.641 347.812C380.161 347.812 379.761 347.972 379.441 348.292C379.121 348.58 378.753 349.092 378.337 349.828L374.785 348.148C375.361 346.516 376.145 345.204 377.137 344.212C378.129 343.188 379.249 342.676 380.497 342.676C381.137 342.676 381.697 342.788 382.177 343.012C382.657 343.204 383.201 343.508 383.809 343.924C383.873 343.956 384.033 344.052 384.289 344.212C384.545 344.372 384.769 344.5 384.961 344.596C385.185 344.66 385.393 344.692 385.585 344.692C386.033 344.692 386.417 344.548 386.737 344.26C387.089 343.94 387.457 343.428 387.841 342.724L391.393 344.404C390.817 346.068 390.033 347.396 389.041 348.388C388.049 349.348 386.929 349.828 385.681 349.828ZM407.957 354.196C411.541 354.196 414.341 355.364 416.357 357.7C418.405 360.004 419.429 363.364 419.429 367.78C419.429 372.004 418.405 375.316 416.357 377.716C414.309 380.116 411.509 381.316 407.957 381.316C404.373 381.316 401.573 380.148 399.557 377.812C397.541 375.476 396.533 372.116 396.533 367.732C396.533 363.476 397.541 360.164 399.557 357.796C401.605 355.396 404.405 354.196 407.957 354.196ZM407.957 359.668C406.645 359.668 405.685 360.292 405.077 361.54C404.469 362.788 404.165 364.852 404.165 367.732C404.165 370.676 404.469 372.772 405.077 374.02C405.685 375.268 406.645 375.892 407.957 375.892C409.269 375.892 410.229 375.268 410.837 374.02C411.477 372.74 411.797 370.66 411.797 367.78C411.797 364.836 411.493 362.756 410.885 361.54C410.277 360.292 409.301 359.668 407.957 359.668ZM430.189 347.236L429.181 368.308H423.373L422.365 347.236H430.189ZM426.301 372.82C427.485 372.82 428.477 373.236 429.277 374.068C430.077 374.9 430.477 375.892 430.477 377.044C430.477 378.228 430.077 379.236 429.277 380.068C428.509 380.9 427.517 381.316 426.301 381.316C425.085 381.316 424.077 380.9 423.277 380.068C422.477 379.236 422.077 378.228 422.077 377.044C422.077 375.892 422.477 374.9 423.277 374.068C424.077 373.236 425.085 372.82 426.301 372.82Z" fill="white"/>
</g>
<defs>
<filter id="filter0_d_90_93" x="-2" y="0.5" width="438" height="401" filterUnits="userSpaceOnUse" color-interpolation-filters="sRGB">
<feFlood flood-opacity="0" result="BackgroundImageFix"/>
<feColorMatrix in="SourceAlpha" type="matrix" values="0 0 0 0 0 0 0 0 0 0 0 0 0 0 0 0 0 0 127 0" result="hardAlpha"/>
<feOffset dy="4"/>
<feGaussianBlur stdDeviation="2"/>
<feComposite in2="hardAlpha" operator="out"/>
<feColorMatrix type="matrix" values="0 0 0 0 0 0 0 0 0 0 0 0 0 0 0 0 0 0 0.25 0"/>
<feBlend mode="normal" in2="BackgroundImageFix" result="effect1_dropShadow_90_93"/>
<feBlend mode="normal" in="SourceGraphic" in2="effect1_dropShadow_90_93" result="shape"/>
</filter>
<filter id="filter1_d_90_93" x="92.9995" y="139.601" width="268" height="48.7407" filterUnits="userSpaceOnUse" color-interpolation-filters="sRGB">
<feFlood flood-opacity="0" result="BackgroundImageFix"/>
<feColorMatrix in="SourceAlpha" type="matrix" values="0 0 0 0 0 0 0 0 0 0 0 0 0 0 0 0 0 0 127 0" result="hardAlpha"/>
<feOffset dy="4"/>
<feGaussianBlur stdDeviation="2"/>
<feComposite in2="hardAlpha" operator="out"/>
<feColorMatrix type="matrix" values="0 0 0 0 0 0 0 0 0 0 0 0 0 0 0 0 0 0 0.25 0"/>
<feBlend mode="normal" in2="BackgroundImageFix" result="effect1_dropShadow_90_93"/>
<feBlend mode="normal" in="SourceGraphic" in2="effect1_dropShadow_90_93" result="shape"/>
</filter>
<filter id="filter2_i_90_93" x="189.421" y="145.421" width="73.125" height="38.9206" filterUnits="userSpaceOnUse" color-interpolation-filters="sRGB">
<feFlood flood-opacity="0" result="BackgroundImageFix"/>
<feBlend mode="normal" in="SourceGraphic" in2="BackgroundImageFix" result="shape"/>
<feColorMatrix in="SourceAlpha" type="matrix" values="0 0 0 0 0 0 0 0 0 0 0 0 0 0 0 0 0 0 127 0" result="hardAlpha"/>
<feOffset dy="4"/>
<feGaussianBlur stdDeviation="2"/>
<feComposite in2="hardAlpha" operator="arithmetic" k2="-1" k3="1"/>
<feColorMatrix type="matrix" values="0 0 0 0 0 0 0 0 0 0 0 0 0 0 0 0 0 0 0.25 0"/>
<feBlend mode="normal" in2="shape" result="effect1_innerShadow_90_93"/>
</filter>
<filter id="filter3_i_90_93" x="283.875" y="145.421" width="73.125" height="38.9206" filterUnits="userSpaceOnUse" color-interpolation-filters="sRGB">
<feFlood flood-opacity="0" result="BackgroundImageFix"/>
<feBlend mode="normal" in="SourceGraphic" in2="BackgroundImageFix" result="shape"/>
<feColorMatrix in="SourceAlpha" type="matrix" values="0 0 0 0 0 0 0 0 0 0 0 0 0 0 0 0 0 0 127 0" result="hardAlpha"/>
<feOffset dy="4"/>
<feGaussianBlur stdDeviation="2"/>
<feComposite in2="hardAlpha" operator="arithmetic" k2="-1" k3="1"/>
<feColorMatrix type="matrix" values="0 0 0 0 0 0 0 0 0 0 0 0 0 0 0 0 0 0 0.25 0"/>
<feBlend mode="normal" in2="shape" result="effect1_innerShadow_90_93"/>
</filter>
<filter id="filter4_i_90_93" x="96.9995" y="145.421" width="73.125" height="38.9206" filterUnits="userSpaceOnUse" color-interpolation-filters="sRGB">
<feFlood flood-opacity="0" result="BackgroundImageFix"/>
<feBlend mode="normal" in="SourceGraphic" in2="BackgroundImageFix" result="shape"/>
<feColorMatrix in="SourceAlpha" type="matrix" values="0 0 0 0 0 0 0 0 0 0 0 0 0 0 0 0 0 0 127 0" result="hardAlpha"/>
<feOffset dy="4"/>
<feGaussianBlur stdDeviation="2"/>
<feComposite in2="hardAlpha" operator="arithmetic" k2="-1" k3="1"/>
<feColorMatrix type="matrix" values="0 0 0 0 0 0 0 0 0 0 0 0 0 0 0 0 0 0 0.25 0"/>
<feBlend mode="normal" in2="shape" result="effect1_innerShadow_90_93"/>
</filter>
</defs>
</svg>
